<?xml version="1.0" encoding="utf-8"?>
<!-- Generator: Adobe Illustrator 23.0.1, SVG Export Plug-In . SVG Version: 6.00 Build 0)  -->
<svg version="1.1" id="Layer_1" xmlns="http://www.w3.org/2000/svg" xmlns:xlink="http://www.w3.org/1999/xlink" x="0px" y="0px"
	 viewBox="0 0 256 256" style="enable-background:new 0 0 256 256;" xml:space="preserve">
<style type="text/css">
	.st0{fill:#B77A29;}
</style>
<path class="st0" d="M219.5,1h-183C16.9,1,1,16.9,1,36.5v183C1,239.1,16.9,255,36.5,255h183c19.6,0,35.5-15.9,35.5-35.5v-183
	C255,16.9,239.1,1,219.5,1z M208.8,128H179v81h-35v-81h-16v-26h16V84.3c0-12.2,3-21.6,8.9-27.8c5.9-6.2,15.6-9.5,28.8-9.5H213v29
	h-25.5c-3.6,0-5.9,0.7-7,2.5s-1.5,4.6-1.5,8.7V102h34.5L208.8,128z"/>
</svg>
