<?xml version="1.0" encoding="utf-8"?>
<!-- Generator: Adobe Illustrator 23.0.1, SVG Export Plug-In . SVG Version: 6.00 Build 0)  -->
<svg version="1.1" id="Layer_1" xmlns="http://www.w3.org/2000/svg" xmlns:xlink="http://www.w3.org/1999/xlink" x="0px" y="0px"
	 viewBox="0 0 256 256" style="enable-background:new 0 0 256 256;" xml:space="preserve">
<style type="text/css">
	.st0{fill:#B77A29;}
</style>
<path class="st0" d="M128,98.3c-16.4,0-29.7,13.3-29.7,29.7s13.3,29.7,29.7,29.7c8.2,0,15.6-3.3,21-8.7s8.7-12.8,8.7-21
	C157.7,111.6,144.4,98.3,128,98.3z M128,98.3c-16.4,0-29.7,13.3-29.7,29.7s13.3,29.7,29.7,29.7c8.2,0,15.6-3.3,21-8.7
	s8.7-12.8,8.7-21C157.7,111.6,144.4,98.3,128,98.3z M200.5,92c-0.4-8.7-1.8-13.4-3-16.6c-3.1-7.7-9.2-13.8-16.9-16.9
	c-3.2-1.2-7.2-2.5-16.6-3s-12.2-0.6-36-0.6s-27.3,0.2-36,0.6s-13.4,1.8-16.6,3c-7.7,3.1-13.8,9.2-16.9,16.9c-1.2,3.2-2.5,7.2-3,16.6
	s-0.6,12.2-0.6,36s0.2,27.3,0.6,36s1.8,13.4,3,16.6c3.1,7.7,9.2,13.8,16.9,16.9c3.2,1.2,7.2,2.5,16.6,3s12.2,0.6,36,0.6
	s27.3-0.2,36-0.6s13.4-1.8,16.6-3c7.7-3.1,13.8-9.2,16.9-16.9c1.2-3.2,2.5-7.2,3-16.6s0.6-12.2,0.6-36S200.9,100.7,200.5,92z
	 M128,173.8c-25.3,0-45.8-20.5-45.8-45.8s20.5-45.8,45.8-45.8s45.8,20.5,45.8,45.8S153.3,173.8,128,173.8z M175.6,91.1
	c-5.9,0-10.7-4.8-10.7-10.7c0-5.9,4.8-10.7,10.7-10.7c5.9,0,10.7,4.8,10.7,10.7C186.3,86.3,181.5,91.1,175.6,91.1z M128,98.3
	c-16.4,0-29.7,13.3-29.7,29.7s13.3,29.7,29.7,29.7c8.2,0,15.6-3.3,21-8.7s8.7-12.8,8.7-21C157.7,111.6,144.4,98.3,128,98.3z
	 M200.5,92c-0.4-8.7-1.8-13.4-3-16.6c-3.1-7.7-9.2-13.8-16.9-16.9c-3.2-1.2-7.2-2.5-16.6-3s-12.2-0.6-36-0.6s-27.3,0.2-36,0.6
	s-13.4,1.8-16.6,3c-7.7,3.1-13.8,9.2-16.9,16.9c-1.2,3.2-2.5,7.2-3,16.6s-0.6,12.2-0.6,36s0.2,27.3,0.6,36s1.8,13.4,3,16.6
	c3.1,7.7,9.2,13.8,16.9,16.9c3.2,1.2,7.2,2.5,16.6,3s12.2,0.6,36,0.6s27.3-0.2,36-0.6s13.4-1.8,16.6-3c7.7-3.1,13.8-9.2,16.9-16.9
	c1.2-3.2,2.5-7.2,3-16.6s0.6-12.2,0.6-36S200.9,100.7,200.5,92z M128,173.8c-25.3,0-45.8-20.5-45.8-45.8s20.5-45.8,45.8-45.8
	s45.8,20.5,45.8,45.8S153.3,173.8,128,173.8z M175.6,91.1c-5.9,0-10.7-4.8-10.7-10.7c0-5.9,4.8-10.7,10.7-10.7
	c5.9,0,10.7,4.8,10.7,10.7C186.3,86.3,181.5,91.1,175.6,91.1z M128,98.3c-16.4,0-29.7,13.3-29.7,29.7s13.3,29.7,29.7,29.7
	c8.2,0,15.6-3.3,21-8.7s8.7-12.8,8.7-21C157.7,111.6,144.4,98.3,128,98.3z M219.5,1h-183C16.9,1,1,16.9,1,36.5v183
	C1,239.1,16.9,255,36.5,255h183c19.6,0,35.5-15.9,35.5-35.5v-183C255,16.9,239.1,1,219.5,1z M216.6,164.7
	c-0.1,7.4-1.6,14.8-4.2,21.7c-4.5,12-14,21.5-26,26c-6.9,2.6-14.3,4-21.7,4.2c-9.5,0.4-12.5,0.5-36.7,0.5s-27.2-0.1-36.7-0.5
	c-7.4-0.1-14.8-1.6-21.7-4.2c-12-4.5-21.5-14-26-26c-2.6-6.9-4-14.3-4.2-21.7c-0.4-9.5-0.5-12.5-0.5-36.7s0.1-27.2,0.5-36.7
	c0.1-7.4,1.6-14.8,4.2-21.7c4.5-12,14-21.5,26-26c6.9-2.6,14.3-4,21.7-4.2c9.5-0.4,12.5-0.5,36.7-0.5s27.2,0.1,36.7,0.5
	c7.4,0.1,14.8,1.6,21.7,4.2c12,4.5,21.5,14,26,26c2.6,6.9,4,14.3,4.2,21.7c0.4,9.5,0.5,12.5,0.5,36.7S217,155.2,216.6,164.7z
	 M197.5,75.4c-3.1-7.7-9.2-13.8-16.9-16.9c-3.2-1.2-7.2-2.5-16.6-3s-12.2-0.6-36-0.6s-27.3,0.2-36,0.6s-13.4,1.8-16.6,3
	c-7.7,3.1-13.8,9.2-16.9,16.9c-1.2,3.2-2.5,7.2-3,16.6s-0.6,12.2-0.6,36s0.2,27.3,0.6,36s1.8,13.4,3,16.6
	c3.1,7.7,9.2,13.8,16.9,16.9c3.2,1.2,7.2,2.5,16.6,3s12.2,0.6,36,0.6s27.3-0.2,36-0.6s13.4-1.8,16.6-3c7.7-3.1,13.8-9.2,16.9-16.9
	c1.2-3.2,2.5-7.2,3-16.6s0.6-12.2,0.6-36s-0.2-27.3-0.6-36S198.7,78.6,197.5,75.4z M128,173.8c-25.3,0-45.8-20.5-45.8-45.8
	s20.5-45.8,45.8-45.8s45.8,20.5,45.8,45.8S153.3,173.8,128,173.8z M175.6,91.1c-5.9,0-10.7-4.8-10.7-10.7c0-5.9,4.8-10.7,10.7-10.7
	c5.9,0,10.7,4.8,10.7,10.7C186.3,86.3,181.5,91.1,175.6,91.1z M128,98.3c-16.4,0-29.7,13.3-29.7,29.7s13.3,29.7,29.7,29.7
	c8.2,0,15.6-3.3,21-8.7s8.7-12.8,8.7-21C157.7,111.6,144.4,98.3,128,98.3z M128,98.3c-16.4,0-29.7,13.3-29.7,29.7
	s13.3,29.7,29.7,29.7c8.2,0,15.6-3.3,21-8.7s8.7-12.8,8.7-21C157.7,111.6,144.4,98.3,128,98.3z M128,98.3
	c-16.4,0-29.7,13.3-29.7,29.7s13.3,29.7,29.7,29.7c8.2,0,15.6-3.3,21-8.7s8.7-12.8,8.7-21C157.7,111.6,144.4,98.3,128,98.3z
	 M200.5,92c-0.4-8.7-1.8-13.4-3-16.6c-3.1-7.7-9.2-13.8-16.9-16.9c-3.2-1.2-7.2-2.5-16.6-3s-12.2-0.6-36-0.6s-27.3,0.2-36,0.6
	s-13.4,1.8-16.6,3c-7.7,3.1-13.8,9.2-16.9,16.9c-1.2,3.2-2.5,7.2-3,16.6s-0.6,12.2-0.6,36s0.2,27.3,0.6,36s1.8,13.4,3,16.6
	c3.1,7.7,9.2,13.8,16.9,16.9c3.2,1.2,7.2,2.5,16.6,3s12.2,0.6,36,0.6s27.3-0.2,36-0.6s13.4-1.8,16.6-3c7.7-3.1,13.8-9.2,16.9-16.9
	c1.2-3.2,2.5-7.2,3-16.6s0.6-12.2,0.6-36S200.9,100.7,200.5,92z M128,173.8c-25.3,0-45.8-20.5-45.8-45.8s20.5-45.8,45.8-45.8
	s45.8,20.5,45.8,45.8S153.3,173.8,128,173.8z M175.6,91.1c-5.9,0-10.7-4.8-10.7-10.7c0-5.9,4.8-10.7,10.7-10.7
	c5.9,0,10.7,4.8,10.7,10.7C186.3,86.3,181.5,91.1,175.6,91.1z M128,98.3c-16.4,0-29.7,13.3-29.7,29.7s13.3,29.7,29.7,29.7
	c8.2,0,15.6-3.3,21-8.7s8.7-12.8,8.7-21C157.7,111.6,144.4,98.3,128,98.3z M128,98.3c-16.4,0-29.7,13.3-29.7,29.7
	s13.3,29.7,29.7,29.7c8.2,0,15.6-3.3,21-8.7s8.7-12.8,8.7-21C157.7,111.6,144.4,98.3,128,98.3z M128,98.3
	c-16.4,0-29.7,13.3-29.7,29.7s13.3,29.7,29.7,29.7c8.2,0,15.6-3.3,21-8.7s8.7-12.8,8.7-21C157.7,111.6,144.4,98.3,128,98.3z
	 M200.5,92c-0.4-8.7-1.8-13.4-3-16.6c-3.1-7.7-9.2-13.8-16.9-16.9c-3.2-1.2-7.2-2.5-16.6-3s-12.2-0.6-36-0.6s-27.3,0.2-36,0.6
	s-13.4,1.8-16.6,3c-7.7,3.1-13.8,9.2-16.9,16.9c-1.2,3.2-2.5,7.2-3,16.6s-0.6,12.2-0.6,36s0.2,27.3,0.6,36s1.8,13.4,3,16.6
	c3.1,7.7,9.2,13.8,16.9,16.9c3.2,1.2,7.2,2.5,16.6,3s12.2,0.6,36,0.6s27.3-0.2,36-0.6s13.4-1.8,16.6-3c7.7-3.1,13.8-9.2,16.9-16.9
	c1.2-3.2,2.5-7.2,3-16.6s0.6-12.2,0.6-36S200.9,100.7,200.5,92z M128,173.8c-25.3,0-45.8-20.5-45.8-45.8s20.5-45.8,45.8-45.8
	s45.8,20.5,45.8,45.8S153.3,173.8,128,173.8z M175.6,91.1c-5.9,0-10.7-4.8-10.7-10.7c0-5.9,4.8-10.7,10.7-10.7
	c5.9,0,10.7,4.8,10.7,10.7C186.3,86.3,181.5,91.1,175.6,91.1z M128,98.3c-16.4,0-29.7,13.3-29.7,29.7s13.3,29.7,29.7,29.7
	c8.2,0,15.6-3.3,21-8.7s8.7-12.8,8.7-21C157.7,111.6,144.4,98.3,128,98.3z"/>
</svg>
