<?xml version="1.0" encoding="utf-8"?>
<!-- Generator: Adobe Illustrator 23.0.1, SVG Export Plug-In . SVG Version: 6.00 Build 0)  -->
<svg version="1.1" id="Layer_1" xmlns="http://www.w3.org/2000/svg" xmlns:xlink="http://www.w3.org/1999/xlink" x="0px" y="0px"
	 viewBox="0 0 256 256" style="enable-background:new 0 0 256 256;" xml:space="preserve">
<style type="text/css">
	.st0{fill:#B77A29;}
</style>
<path class="st0" d="M219.5,1h-183C16.9,1,1,16.9,1,36.5v183C1,239.1,16.9,255,36.5,255h183c19.6,0,35.5-15.9,35.5-35.5v-183
	C255,16.9,239.1,1,219.5,1z M209.8,131.6c-0.1,8.8-0.6,17.5-1.7,26.2c0,0-1.8,11.2-6.6,16.1c-6.1,6.5-13,6.5-16.2,6.9
	c-22.7,1.6-56.8,1.6-56.8,1.6s-42.1-0.3-55.2-1.6c-3.6-0.7-11.7-0.4-17.9-6.9c-4.9-4.9-6.6-16.1-6.6-16.1
	c-1.1-8.7-1.6-17.4-1.7-26.2v-12.3c0.1-8.8,0.6-17.6,1.7-26.3c0,0,1.7-11.2,6.6-16.1c6.1-6.5,13-6.6,16.2-7
	c22.7-1.6,56.8-1.9,56.8-1.9s34,0.3,56.8,1.9c3.1,0.3,10.1,0.6,16.3,7.1c4.9,4.9,6.6,16.1,6.6,16.1c1.1,8.7,1.6,17.4,1.7,26.2V131.6
	z M111.7,146.5l43.8-22.7l-43.8-22.8V146.5z"/>
</svg>
